<?xml version="1.0" standalone="no"?>
<!DOCTYPE svg PUBLIC "-//W3C//DTD SVG 20010904//EN"
 "http://www.w3.org/TR/2001/REC-SVG-20010904/DTD/svg10.dtd">
<svg version="1.0" xmlns="http://www.w3.org/2000/svg"
 width="1000.000000pt" height="1000.000000pt" viewBox="0 0 1000.000000 1000.000000"
 preserveAspectRatio="xMidYMid meet">
<metadata>
Created by potrace 1.14, written by Peter Selinger 2001-2017
</metadata>
<g transform="translate(0.000000,1000.000000) scale(0.100000,-0.100000)"
fill="#000000" stroke="none">
<path d="M4310 8795 c-96 -13 -186 -25 -200 -29 -120 -27 -367 -90 -379 -97
-9 -5 -63 -22 -120 -39 -57 -16 -109 -34 -115 -38 -6 -5 -40 -19 -76 -32 -36
-12 -103 -41 -150 -62 -47 -22 -111 -52 -142 -67 -31 -14 -57 -29 -57 -33 -1
-5 68 -8 152 -8 l152 0 -80 -42 c-44 -22 -91 -49 -104 -59 -21 -17 -43 -19
-183 -19 -142 0 -163 -2 -201 -21 -23 -12 -44 -25 -47 -28 -3 -4 -48 -35 -100
-70 -52 -35 -109 -76 -126 -90 -17 -14 -60 -48 -95 -76 -64 -50 -79 -63 -178
-151 -146 -132 -345 -350 -474 -519 -64 -83 -237 -339 -237 -349 0 -3 90 -6
200 -6 l201 0 -16 -30 -15 -30 -206 -2 -205 -3 -36 -65 c-59 -108 -119 -232
-144 -295 -13 -33 -27 -62 -30 -65 -3 -3 -14 -30 -24 -60 -10 -30 -28 -80 -41
-111 -12 -30 -35 -98 -49 -150 -15 -51 -30 -98 -34 -104 -5 -5 -11 -23 -14
-40 -4 -16 -18 -84 -32 -150 -15 -66 -27 -128 -28 -137 -1 -17 -22 -18 -288
-18 l-286 0 -7 -46 c-12 -93 -42 -84 275 -84 l281 0 -6 -37 c-37 -245 -43
-719 -13 -973 25 -210 39 -294 48 -304 5 -6 9 -19 9 -29 0 -31 50 -249 64
-282 8 -16 26 -75 41 -130 15 -55 31 -105 36 -110 4 -6 20 -46 35 -90 15 -44
30 -82 34 -85 3 -3 14 -27 25 -55 10 -27 29 -74 43 -102 l24 -53 110 0 109 0
14 -33 13 -32 -104 -3 c-57 -1 -104 -7 -104 -12 0 -5 7 -15 15 -24 8 -8 15
-17 15 -20 0 -12 126 -224 190 -319 l68 -102 -239 -3 c-146 -1 -239 -6 -239
-12 0 -5 28 -46 63 -90 l62 -80 247 0 246 0 80 -93 c188 -218 463 -471 651
-597 l45 -30 462 0 c283 0 465 -4 469 -10 3 -5 29 -22 57 -37 l51 -28 -448 -5
c-346 -4 -449 -8 -453 -17 -2 -7 3 -13 11 -13 8 0 32 -13 55 -29 22 -17 66
-44 99 -61 250 -131 390 -198 483 -231 36 -12 70 -26 75 -30 39 -28 405 -133
595 -170 265 -51 278 -52 915 -52 637 -1 655 1 920 52 128 25 371 87 410 105
17 8 64 24 105 36 41 12 80 25 85 30 6 4 44 20 85 35 78 29 234 98 260 115 8
6 47 26 85 45 39 20 98 52 132 73 34 20 83 49 109 65 l47 27 463 0 463 0 58
40 c72 49 83 58 83 70 0 6 -168 10 -447 10 l-447 0 31 23 c145 105 263 208
433 377 126 125 295 316 353 400 10 14 36 50 58 80 22 30 57 80 77 110 19 30
39 57 44 58 4 2 8 10 8 18 0 12 -34 14 -200 14 l-199 0 24 36 c13 19 27 44 30
55 6 18 18 19 209 19 160 0 206 3 215 14 13 16 167 319 199 394 39 89 92 233
122 327 15 50 34 110 43 135 8 25 25 92 36 150 12 58 26 114 31 125 13 28 48
279 55 395 4 52 8 105 11 118 4 22 3 22 -96 22 l-100 0 3 65 2 65 99 0 99 0
-6 238 c-9 373 -55 666 -153 982 -51 166 -108 321 -144 395 l-20 40 190 3
c189 2 190 3 190 25 0 12 -7 30 -14 40 -12 15 -34 17 -207 17 l-194 0 -78 148
c-83 157 -81 153 -143 252 -23 36 -46 75 -53 87 -6 12 -17 27 -24 35 -7 7 -29
38 -50 68 -57 83 -82 117 -114 153 -15 18 -44 53 -63 77 -89 111 -266 294
-386 399 -157 138 -175 154 -217 182 -18 13 -39 30 -48 38 -28 27 -240 172
-269 184 -8 3 52 6 135 5 82 0 151 4 152 9 2 5 -29 26 -69 48 -40 21 -88 49
-107 62 -32 22 -43 23 -203 23 l-168 0 -83 43 c-142 73 -272 127 -447 184 -58
19 -118 41 -135 48 -16 7 -77 23 -135 35 -58 12 -112 26 -121 31 -23 12 -181
38 -364 60 -140 16 -224 19 -665 18 -465 -1 -519 -3 -680 -24z m890 -1189
c127 -17 304 -52 335 -66 11 -5 55 -18 99 -30 43 -11 97 -29 120 -39 22 -10
57 -24 76 -31 46 -17 198 -86 230 -105 14 -8 54 -30 90 -50 36 -19 90 -52 121
-73 31 -20 76 -50 100 -66 60 -40 105 -76 218 -176 114 -101 158 -146 258
-262 l76 -88 197 0 198 0 16 -25 16 -25 -190 0 c-162 0 -190 -2 -190 -15 0 -8
4 -15 8 -15 4 0 16 -15 26 -32 11 -18 36 -58 56 -88 51 -76 155 -268 186 -343
14 -34 32 -77 41 -96 35 -76 97 -286 128 -431 39 -182 53 -302 59 -497 l5
-143 -103 0 -103 0 -7 -52 c-3 -29 -6 -65 -6 -80 l0 -28 100 0 100 0 0 -27 c0
-118 -109 -553 -173 -694 -9 -19 -27 -61 -41 -94 -103 -249 -298 -538 -518
-767 l-65 -68 -203 0 -203 0 -41 -37 c-23 -21 -56 -49 -74 -63 -60 -46 -49
-50 156 -50 l187 0 -30 -25 c-31 -25 -144 -103 -252 -173 -70 -45 -307 -162
-368 -182 -22 -7 -59 -21 -81 -31 -160 -71 -551 -152 -739 -152 -94 0 -290 25
-407 52 -122 29 -294 79 -342 100 -22 10 -69 28 -104 41 -34 12 -65 27 -68 31
-3 5 -121 9 -262 9 l-257 0 -123 62 -124 63 236 3 c130 1 236 6 236 11 0 5
-21 21 -47 37 -113 66 -268 190 -418 336 l-110 108 103 0 c56 0 102 3 102 8 0
4 -17 25 -38 47 l-37 40 -104 2 -105 2 -36 43 c-39 47 -41 50 -121 169 -140
211 -268 480 -314 659 -9 36 -21 70 -25 75 -5 6 -20 73 -35 150 -15 77 -31
156 -36 175 -18 67 -29 216 -29 392 0 175 15 374 30 393 4 6 10 35 14 65 3 30
9 72 12 93 l7 37 -289 0 c-162 0 -283 4 -276 9 8 4 13 11 12 15 -1 3 1 20 5
36 l7 30 278 0 279 0 15 33 c9 17 27 73 41 122 15 50 32 99 39 110 7 11 19 38
26 60 15 44 98 217 150 310 61 109 240 363 279 395 3 3 39 42 80 88 l73 82
198 0 198 0 44 33 c23 18 44 41 46 50 3 15 -15 17 -182 19 l-186 3 56 45 c30
25 67 55 82 68 15 12 43 32 62 44 19 12 37 25 40 29 3 3 30 21 60 39 30 18 62
39 70 46 29 24 293 154 364 180 39 13 89 33 111 43 22 10 65 24 95 31 30 7 79
21 109 31 68 24 233 55 336 64 44 4 89 11 100 16 25 10 114 5 265 -15z"/>
<path d="M4615 6703 c-85 -11 -261 -47 -270 -53 -5 -4 -44 -18 -85 -30 -41
-12 -112 -40 -157 -61 -46 -22 -87 -39 -92 -39 -5 0 -16 -6 -23 -14 -8 -8 -39
-26 -69 -41 -30 -15 -56 -31 -59 -35 -3 -4 -27 -22 -54 -39 l-50 -31 -145 0
-146 0 -64 -53 c-36 -28 -66 -58 -69 -64 -3 -10 28 -13 133 -13 l137 0 -60
-64 c-98 -105 -252 -310 -252 -336 0 -4 -11 -24 -25 -44 -13 -20 -21 -36 -17
-36 4 0 2 -4 -4 -8 -5 -4 -21 -34 -34 -67 -13 -33 -31 -79 -42 -102 -16 -37
-50 -160 -79 -288 -16 -70 -22 -373 -10 -473 11 -90 74 -345 90 -366 4 -6 18
-40 31 -76 12 -36 30 -76 39 -90 8 -14 27 -50 42 -80 14 -30 33 -61 42 -69 10
-7 17 -18 17 -24 0 -11 97 -143 139 -189 l25 -28 -197 0 c-121 0 -198 -4 -202
-10 -6 -10 33 -52 108 -117 l39 -33 206 0 207 0 50 -39 c28 -22 70 -52 95 -67
25 -15 54 -35 65 -44 51 -45 302 -161 413 -191 42 -12 82 -25 88 -30 5 -4 68
-18 140 -31 118 -21 160 -22 499 -23 339 0 381 2 498 23 70 12 135 26 145 31
9 6 51 20 92 31 41 12 100 33 130 47 30 14 73 32 95 41 22 8 47 21 55 27 8 7
40 25 70 40 30 15 57 31 60 35 3 4 24 19 48 34 77 48 162 117 157 127 -4 5
-93 9 -201 9 l-196 0 57 55 56 55 209 0 209 0 37 40 c183 198 348 523 397 783
l11 57 93 0 c55 0 93 4 93 10 0 6 -39 10 -96 10 l-96 0 6 38 c23 153 15 457
-16 567 -7 22 -12 43 -12 47 -1 3 -4 10 -8 14 -5 4 -8 15 -8 24 0 23 -36 135
-63 194 -66 146 -188 353 -218 372 -6 3 -19 20 -29 36 -10 17 -55 68 -100 114
l-82 84 -152 0 c-146 0 -153 1 -172 23 -11 12 -33 32 -49 44 l-30 22 133 1
c143 0 162 9 100 44 -18 11 -41 26 -51 35 -11 9 -44 31 -75 48 -53 31 -81 44
-217 108 -27 12 -84 33 -125 45 -41 12 -80 26 -85 31 -6 4 -62 18 -125 30
-106 21 -147 23 -515 25 -220 1 -413 0 -430 -3z m486 -912 c86 -22 220 -86
294 -141 190 -140 317 -365 341 -602 6 -67 2 -93 -58 -336 -6 -24 -21 -58 -32
-75 -12 -18 -33 -52 -48 -77 -30 -52 -136 -165 -188 -200 -19 -13 -37 -27 -40
-31 -16 -21 -198 -102 -270 -120 -82 -21 -86 -21 -160 -4 -94 21 -239 89 -319
150 -115 87 -236 245 -278 360 -64 179 -64 390 0 570 41 114 170 280 282 362
78 58 206 120 292 143 88 24 96 24 184 1z"/>
<path d="M4806 5242 c-16 -2 -34 -8 -40 -14 -6 -5 -29 -19 -51 -31 -23 -14
-51 -42 -70 -71 -28 -45 -30 -57 -29 -136 0 -105 18 -139 98 -195 l54 -37 118
-2 c66 -1 136 1 157 4 20 4 59 3 85 -2 48 -9 131 3 155 21 99 78 148 153 146
224 -1 70 -53 155 -123 202 -55 36 -65 39 -129 39 -49 0 -71 -4 -78 -14 -7
-12 -11 -13 -18 -2 -6 10 -41 14 -127 16 -65 1 -132 0 -148 -2z"/>
</g>
</svg>
