<?xml version="1.0" standalone="no"?>
<!DOCTYPE svg PUBLIC "-//W3C//DTD SVG 20010904//EN"
 "http://www.w3.org/TR/2001/REC-SVG-20010904/DTD/svg10.dtd">
<svg version="1.0" xmlns="http://www.w3.org/2000/svg"
 width="439.000000pt" height="439.000000pt" viewBox="0 0 439.000000 439.000000"
 preserveAspectRatio="xMidYMid meet">
<metadata>
Created by potrace 1.14, written by Peter Selinger 2001-2017
</metadata>
<g transform="translate(0.000000,439.000000) scale(0.100000,-0.100000)"
fill="#000000" stroke="none">
<path d="M1946 4143 c-163 -21 -343 -70 -476 -130 -137 -61 -150 -68 -150 -77
0 -5 34 -6 78 -2 l77 6 -40 -21 c-22 -12 -48 -28 -57 -36 -14 -12 -32 -14 -92
-8 -87 8 -84 9 -211 -85 -191 -142 -353 -311 -486 -507 -27 -40 -49 -75 -49
-78 0 -3 45 -5 101 -5 76 0 100 -3 96 -12 -3 -9 -34 -13 -107 -13 l-103 0 -20
-30 c-36 -57 -105 -211 -140 -316 -27 -81 -67 -238 -67 -265 0 -2 -67 -4 -150
-4 l-150 0 0 -35 0 -35 145 0 c111 0 143 -3 140 -12 -6 -15 -12 -78 -21 -213
-14 -213 53 -594 141 -800 8 -16 22 -51 33 -77 l20 -47 59 -3 c42 -2 59 -7 61
-18 2 -12 -7 -14 -48 -12 -27 2 -50 2 -50 -1 0 -9 81 -149 111 -194 16 -23 29
-44 29 -47 0 -3 -54 -6 -120 -6 -66 0 -120 -3 -120 -6 0 -3 16 -26 36 -50 l36
-44 128 0 128 0 25 -33 c39 -52 215 -221 287 -277 l65 -50 237 0 c220 0 240
-2 270 -20 l33 -20 -227 0 c-126 0 -228 -3 -228 -7 0 -13 59 -48 175 -106 187
-93 355 -150 545 -184 116 -21 641 -30 760 -13 277 40 498 116 738 255 l84 48
229 -5 230 -5 42 31 42 31 -228 3 -228 2 58 47 c103 83 243 225 327 333 80
102 116 154 116 165 0 3 -45 5 -101 5 l-100 0 17 30 c18 29 18 29 123 32 l105
3 57 110 c91 177 169 439 184 620 3 39 8 82 10 98 4 26 3 27 -45 27 -49 0 -50
1 -50 30 0 29 1 30 50 30 l50 0 0 78 c0 112 -18 282 -41 397 -22 101 -94 332
-110 350 -20 21 -5 25 86 25 96 0 107 5 86 38 -6 10 -33 13 -106 11 l-97 -3
-45 85 c-64 121 -97 171 -189 289 -82 106 -216 242 -309 315 -27 22 -52 43
-55 46 -3 3 -33 24 -67 48 -35 23 -63 44 -63 47 0 3 29 4 65 3 36 -1 67 0 70
2 2 3 -21 19 -51 37 -51 29 -64 32 -139 32 -76 0 -90 3 -167 39 -205 97 -359
142 -563 165 -150 18 -582 17 -719 -1z m409 -603 c3 -5 24 -10 45 -10 52 0
165 -24 257 -55 219 -74 362 -164 535 -337 l107 -108 101 0 c60 0 100 -4 100
-10 0 -6 -37 -10 -90 -10 -49 0 -90 -3 -90 -8 0 -4 21 -41 47 -82 125 -201
197 -435 205 -665 l3 -90 -51 -3 c-51 -3 -52 -4 -57 -39 -4 -20 -4 -40 -1 -45
3 -4 27 -8 55 -8 28 0 49 -5 49 -11 0 -24 -43 -218 -60 -269 -65 -196 -160
-357 -308 -517 l-39 -43 -102 0 c-100 0 -103 -1 -142 -32 -21 -17 -39 -35 -39
-39 0 -5 42 -10 93 -11 l92 -3 -80 -54 c-167 -112 -335 -178 -539 -212 -105
-18 -132 -19 -206 -9 -108 14 -257 52 -337 85 -56 22 -76 25 -191 25 -126 0
-131 1 -192 33 l-63 32 123 5 123 5 -54 35 c-64 41 -92 64 -179 147 l-65 63
53 0 53 0 -18 25 c-15 21 -26 24 -74 25 -64 0 -72 6 -142 115 -93 146 -163
316 -194 474 -29 148 -28 392 3 539 l4 22 -146 0 c-129 0 -145 2 -140 16 3 9
6 20 6 25 0 5 63 9 144 9 l144 0 12 33 c40 109 57 151 97 232 47 95 113 193
197 288 l50 57 102 0 c87 0 105 3 128 21 14 11 24 25 21 30 -4 5 -45 9 -93 9
l-87 1 30 25 c160 133 406 245 603 274 42 7 91 15 107 20 43 12 83 12 90 0z"/>
<path d="M2055 3065 c-117 -22 -283 -91 -353 -145 -20 -16 -40 -20 -102 -20
-73 0 -78 -2 -116 -35 l-39 -34 74 -1 73 0 -52 -57 c-102 -112 -154 -211 -200
-383 -29 -110 -27 -268 4 -380 45 -160 100 -271 179 -357 l20 -23 -101 0 c-56
0 -102 -4 -102 -8 0 -4 15 -22 33 -40 33 -32 33 -32 140 -32 l106 0 82 -56
c122 -83 242 -133 369 -153 97 -16 424 -14 512 3 84 16 162 44 251 90 79 40
177 105 177 117 0 5 -45 9 -101 9 l-101 0 23 25 c23 23 30 25 127 25 57 0 112
4 122 10 59 31 173 235 208 370 l19 75 49 6 49 6 -50 1 -50 2 3 113 c7 230
-64 422 -218 590 l-52 57 -82 0 c-70 0 -86 3 -101 20 -18 20 -17 20 43 20 34
0 62 4 62 10 0 5 -19 22 -42 38 -100 69 -237 121 -365 141 -98 15 -411 12
-498 -4z m387 -493 c123 -60 217 -185 238 -315 12 -78 -18 -210 -63 -276 -111
-162 -277 -225 -418 -159 -82 39 -172 126 -211 206 -31 62 -33 73 -33 172 0
99 2 110 33 172 50 103 170 202 277 231 43 12 116 -1 177 -31z"/>
<path d="M2168 2305 c-47 -31 -58 -52 -58 -113 0 -42 5 -54 31 -80 17 -17 45
-32 62 -35 27 -3 142 -3 224 2 34 2 91 57 99 96 10 52 -12 102 -57 130 -39 26
-93 33 -104 15 -4 -6 -13 -7 -23 -1 -9 5 -44 9 -77 9 -47 1 -68 -4 -97 -23z"/>
</g>
</svg>
